<?xml version="1.0" encoding="UTF-8"?>
<svg width="22px" height="22px" viewBox="0 0 22 22" version="1.1" xmlns="http://www.w3.org/2000/svg" xmlns:xlink="http://www.w3.org/1999/xlink">
    <title>编组 2备份 2@2x</title>
    <defs>
        <path d="M4.71428571,0 L20.4285714,0 C21.2964475,-1.59426241e-16 22,0.703552536 22,1.57142857 L22,17.2857143 C22,19.8893424 19.8893424,22 17.2857143,22 L1.57142857,22 C0.703552536,22 -5.59849654e-16,21.2964475 0,20.4285714 L0,4.71428571 C-3.18852483e-16,2.11065761 2.11065761,4.78278724e-16 4.71428571,0 Z" id="path-1"></path>
    </defs>
    <g id="页面-1" stroke="none" stroke-width="1" fill="none" fill-rule="evenodd">
        <g id="minty_cashback按钮2" transform="translate(-953.000000, -669.000000)">
            <g id="编组-22" transform="translate(953.000000, 669.000000)">
                <g id="矩形">
                    <mask id="mask-2" fill="white">
                        <use xlink:href="#path-1"></use>
                    </mask>
                    <use id="蒙版" fill="#D85B04" xlink:href="#path-1"></use>
                </g>
                <path d="M7.59114583,16.5 L7.59114583,9.44101915 L10.2363131,13.7961449 C10.4998738,14.2300835 11.0653086,14.368202 11.4992471,14.1046413 C11.6273184,14.0268548 11.7344336,13.9189409 11.8112666,13.7902954 L14.4088542,9.44101915 L14.4088542,9.44101915 L14.4088542,16.5 L16.5,16.5 L16.5,5.5 L14.5520833,5.5 L11.0286458,11.3374494 L7.5625,5.5 L5.5,5.5 L5.5,16.5 L7.59114583,16.5 Z" id="M备份-4" fill="#FFFFFF" fill-rule="nonzero"></path>
            </g>
        </g>
    </g>
</svg>